# xmcd
#
# Track frame offsets:
#	183
#	21823
#	38875
#	55508
#	71000
#	87053
#	108130
#	124313
#	140695
#	155665
#	168673
#	184485
#	200533
#	217970
#	229615
#
# Disc length: 3238 seconds
#
# Revision: 0
# Processed by: cddbd v1.4PL0 Copyright (c) Steve Scherf et al.
# Submitted via: audiograbber 1.80
#
DISCID=d20ca40f
DTITLE=Mannick - Les mots difficiles à dire
DYEAR=1900
DGENRE=
TTITLE0=Les mots difficiles à dire ( Ma mère )
TTITLE1=Garder sa terre au Brésil
TTITLE2=Papa Freud
TTITLE3=Il n'a pas vraiment dit  Je t'aime
TTITLE4=Bien sûr qu'il faut changer la mort
TTITLE5=Un jour les enfants...
TTITLE6=Femme auprès de vous
TTITLE7=Demain je fais régime
TTITLE8=Je suis un pigeon voyageur
TTITLE9=Crois-tu qu'un goéland puisse oublier la mer
TTITLE10=Es-tu mon impossible Amour ?
TTITLE11=J'n'aurai pas quarante ans
TTITLE12=Quand un homme s'éloigne
TTITLE13=Tu dis que tu aimes
TTITLE14=Comme Ulysse
EXTD=France
EXTT0=
EXTT1=
EXTT2=
EXTT3=
EXTT4=
EXTT5=
EXTT6=
EXTT7=
EXTT8=
EXTT9=
EXTT10=
EXTT11=
EXTT12=
EXTT13=
EXTT14=
PLAYORDER=
